<?xml version="1.0" standalone="no"?>
<!DOCTYPE svg PUBLIC "-//W3C//DTD SVG 20010904//EN"
 "http://www.w3.org/TR/2001/REC-SVG-20010904/DTD/svg10.dtd">
<svg version="1.0" xmlns="http://www.w3.org/2000/svg"
 width="702.000000pt" height="243.000000pt" viewBox="0 0 702.000000 243.000000"
 preserveAspectRatio="xMidYMid meet">

<g transform="translate(0.000000,243.000000) scale(0.100000,-0.100000)"
fill="#000000" stroke="none">
<path d="M2 1948 c3 -430 6 -488 21 -529 23 -60 69 -114 120 -142 42 -22 47
-22 599 -27 543 -5 557 -6 584 -26 68 -51 69 -52 72 -312 l3 -238 -45 -12
c-56 -15 -122 -72 -147 -127 -25 -54 -27 -332 -4 -388 23 -55 70 -102 124
-126 l50 -21 2144 2 2144 3 49 30 c30 19 60 49 79 79 29 48 30 52 33 200 2
100 -1 165 -9 195 -18 63 -92 136 -153 153 l-46 12 0 223 c0 255 7 287 69 325
l36 23 555 5 c554 5 555 5 598 28 50 27 94 84 119 155 16 47 18 95 18 522 l0
470 -3508 3 -3508 2 3 -482z m6926 -41 l-3 -433 -25 -49 c-46 -88 -12 -83
-625 -88 -434 -3 -548 -6 -580 -18 -56 -19 -130 -94 -144 -144 -6 -23 -11
-134 -11 -267 l0 -228 -2030 0 -2030 0 0 221 c0 127 -5 239 -11 264 -15 59
-67 117 -129 144 -62 27 -98 29 -497 30 l-303 1 0 115 0 114 43 12 c55 15 110
72 133 141 26 78 23 235 -5 310 -26 67 -83 124 -135 134 l-36 6 0 84 0 84
3195 0 3196 0 -3 -433z m-6340 121 c70 -75 44 -338 -33 -338 -13 0 -15 27 -15
180 0 193 3 205 48 158z m5090 -1466 c59 -42 67 -70 67 -227 0 -158 -10 -187
-75 -228 l-35 -22 -1990 -3 c-1094 -1 -2009 0 -2032 3 l-43 6 0 250 0 249
2038 -2 2037 -3 33 -23z"/>
<path d="M973 2171 c-79 -20 -139 -82 -165 -171 -7 -25 -13 -88 -13 -141 1
-88 3 -102 34 -163 44 -91 87 -119 186 -124 110 -6 171 32 216 133 32 69 38
221 14 298 -31 99 -100 159 -195 170 -25 3 -59 2 -77 -2z m132 -134 c19 -19
38 -52 45 -78 15 -56 7 -176 -15 -218 -23 -46 -71 -73 -118 -67 -82 10 -122
87 -115 218 6 123 47 177 132 178 30 0 45 -7 71 -33z"/>
<path d="M1451 2170 c-72 -17 -121 -82 -121 -158 0 -92 47 -144 165 -182 86
-28 105 -43 105 -86 0 -41 -38 -74 -86 -74 -41 0 -90 40 -99 81 -7 31 -8 31
-53 25 -25 -3 -47 -8 -49 -10 -9 -8 19 -92 42 -127 32 -49 78 -69 160 -69 120
0 188 65 188 179 0 107 -37 150 -173 196 -88 30 -100 39 -100 76 0 34 23 49
79 49 31 0 44 -6 60 -26 12 -15 21 -33 21 -40 0 -10 15 -14 51 -14 l52 0 -6
40 c-7 53 -40 105 -80 123 -42 20 -113 28 -156 17z"/>
<path d="M2706 2165 c-52 -18 -100 -67 -128 -129 -19 -44 -23 -68 -23 -166 0
-99 3 -122 23 -165 44 -95 103 -138 192 -139 97 0 157 46 194 150 l14 42 -49
21 -50 20 -10 -27 c-27 -76 -67 -108 -118 -97 -63 14 -91 74 -91 195 0 130 29
185 103 197 32 5 41 1 72 -30 19 -19 35 -42 35 -51 0 -13 6 -15 28 -10 79 20
85 30 53 92 -48 94 -145 133 -245 97z"/>
<path d="M4649 2167 c-107 -40 -161 -139 -162 -297 -1 -156 61 -264 169 -296
134 -39 251 34 289 181 28 111 12 248 -40 327 -50 75 -172 116 -256 85z m125
-112 c50 -24 69 -67 74 -166 4 -71 1 -94 -16 -132 -38 -87 -122 -110 -183 -51
-39 37 -53 85 -53 174 1 89 22 143 68 171 38 23 68 24 110 4z"/>
<path d="M5371 2170 c-46 -11 -80 -38 -118 -93 -80 -118 -67 -353 25 -451 37
-39 81 -56 149 -56 87 0 152 50 182 139 15 47 16 47 -29 65 -55 22 -55 21 -69
-23 -23 -77 -93 -103 -150 -56 -39 33 -54 81 -54 174 -1 93 15 142 54 176 55
46 137 20 154 -48 7 -25 7 -25 52 -12 25 8 47 16 50 19 9 9 -18 76 -44 107
-14 16 -37 36 -52 43 -35 19 -108 27 -150 16z"/>
<path d="M5865 2171 c-78 -20 -115 -55 -158 -148 -17 -39 -21 -67 -22 -153 0
-100 2 -109 33 -173 45 -92 88 -120 187 -125 110 -6 170 31 217 133 20 43 23
66 23 165 0 99 -3 122 -23 165 -28 60 -55 91 -102 115 -43 22 -114 32 -155 21z
m119 -122 c47 -37 60 -75 61 -174 0 -69 -4 -99 -19 -129 -51 -102 -177 -96
-222 11 -20 46 -18 182 3 234 29 73 120 103 177 58z"/>
<path d="M1780 1875 l0 -295 50 0 50 0 0 295 0 295 -50 0 -50 0 0 -295z"/>
<path d="M1972 1873 l3 -298 48 -3 47 -3 0 125 0 126 100 0 100 0 0 55 0 55
-100 0 -100 0 0 65 0 64 118 3 117 3 0 50 0 50 -168 3 -167 2 2 -297z"/>
<path d="M2380 1870 l0 -300 50 0 50 0 0 300 0 300 -50 0 -50 0 0 -300z"/>
<path d="M3115 1933 c-42 -131 -85 -264 -95 -296 -22 -67 -19 -70 51 -65 l43
3 20 68 19 67 92 0 92 0 20 -67 20 -68 57 -3 c41 -2 56 1 56 10 0 7 -43 142
-96 300 l-96 288 -53 0 -54 0 -76 -237z m184 -105 c1 -5 -24 -8 -54 -8 -30 0
-55 3 -55 6 0 3 12 45 27 93 l27 86 27 -85 c15 -47 28 -88 28 -92z"/>
<path d="M3540 1870 l0 -300 50 0 50 0 1 178 0 177 90 -177 89 -178 55 0 55 0
0 300 0 300 -50 0 -50 0 -1 -187 0 -188 -95 188 -94 187 -50 0 -50 0 0 -300z"/>
<path d="M4020 1870 l0 -300 108 0 c172 0 223 23 268 118 21 45 28 77 32 147
6 110 -9 188 -49 249 -44 71 -85 86 -236 86 l-123 0 0 -300z m247 170 c39 -24
53 -67 53 -170 0 -146 -24 -182 -126 -188 l-64 -4 0 191 0 191 53 0 c34 0 63
-7 84 -20z"/>
<path d="M6227 2164 c-4 -4 -7 -137 -7 -296 l0 -288 30 -2 c17 -1 38 -2 48 -2
15 -1 17 17 22 203 l5 204 38 -189 c21 -104 41 -197 43 -206 4 -14 16 -18 50
-18 54 0 49 -14 100 235 l39 190 3 -212 2 -213 45 0 45 0 0 300 0 300 -75 0
c-41 0 -75 -2 -75 -5 0 -9 -71 -339 -77 -360 -4 -12 -23 55 -48 170 l-41 190
-70 3 c-38 1 -73 0 -77 -4z"/>
<path d="M5030 1629 l0 -60 48 3 47 3 3 58 3 57 -51 0 -50 0 0 -61z"/>
</g>
</svg>
